<?xml version="1.0" encoding="UTF-8"?>
<svg version="1.1" xmlns="http://www.w3.org/2000/svg" width="500" height="500">
<path d="M0 0 C1.30492905 -0.00637985 2.60985809 -0.0127597 3.95433044 -0.01933289 C5.37588463 -0.02086158 6.79743932 -0.02197553 8.21899414 -0.02270508 C9.68103569 -0.02591974 11.14307692 -0.02928397 12.6051178 -0.03279114 C15.66741685 -0.03877357 18.72968771 -0.04063192 21.79199219 -0.04003906 C25.71048543 -0.03993742 29.62879757 -0.05359587 33.54724789 -0.07081127 C36.5661756 -0.08194404 39.58505968 -0.08395789 42.60400581 -0.08342934 C44.04845365 -0.08460728 45.49290269 -0.08901867 46.93733025 -0.0967617 C48.95949839 -0.10658807 50.98171982 -0.10241247 53.00390625 -0.09765625 C54.15322128 -0.09908127 55.30253632 -0.10050629 56.48667908 -0.10197449 C60.35284507 0.20837378 63.28858767 1.03182262 66.23461914 3.59838867 C70.81950424 9.02010369 74.93069898 14.74713002 79.01586914 20.54760742 C83.95271349 27.54537351 89.1452743 34.3540343 94.44165039 41.08276367 C96.73161967 43.99918432 98.6586796 46.96531236 100.56665039 50.14526367 C101.17637695 50.74467773 101.78610352 51.3440918 102.41430664 51.96166992 C104.67639615 54.25660284 106.47261114 56.63029295 108.31665039 59.27026367 C108.93024414 60.1390918 109.54383789 61.00791992 110.17602539 61.90307617 C111.56665039 64.14526367 111.56665039 64.14526367 111.56665039 66.14526367 C113.05165039 66.64026367 113.05165039 66.64026367 114.56665039 67.14526367 C116.32141263 69.42818625 117.96060407 71.69967435 119.56665039 74.08276367 C120.43669764 75.36608337 121.31153338 76.64617266 122.19165039 77.92260742 C122.57579102 78.49229248 122.95993164 79.06197754 123.35571289 79.64892578 C124.67773787 81.43442745 124.67773787 81.43442745 127.56665039 83.14526367 C127.89665039 82.15526367 128.22665039 81.16526367 128.56665039 80.14526367 C129.22665039 80.14526367 129.88665039 80.14526367 130.56665039 80.14526367 C131.55665039 78.16526367 131.55665039 78.16526367 132.56665039 76.14526367 C133.22665039 76.14526367 133.88665039 76.14526367 134.56665039 76.14526367 C135.55665039 74.16526367 135.55665039 74.16526367 136.56665039 72.14526367 C137.22665039 72.14526367 137.88665039 72.14526367 138.56665039 72.14526367 C138.79352539 71.60901367 139.02040039 71.07276367 139.25415039 70.52026367 C141.02235128 67.32066206 143.10335242 64.85489144 145.56665039 62.14526367 C146.22665039 62.14526367 146.88665039 62.14526367 147.56665039 62.14526367 C147.81415039 61.58838867 148.06165039 61.03151367 148.31665039 60.45776367 C149.79589857 57.72115454 151.50132478 55.46875498 153.56665039 53.14526367 C154.22665039 53.14526367 154.88665039 53.14526367 155.56665039 53.14526367 C155.79352539 52.58838867 156.02040039 52.03151367 156.25415039 51.45776367 C157.9403207 48.48689218 160.12052155 46.53703409 162.56665039 44.14526367 C164.4033602 42.01958874 166.21703213 39.87728913 168.01586914 37.71948242 C168.52762695 37.19999023 169.03938477 36.68049805 169.56665039 36.14526367 C170.22665039 36.14526367 170.88665039 36.14526367 171.56665039 36.14526367 C171.83477539 35.50588867 172.10290039 34.86651367 172.37915039 34.20776367 C173.56665039 32.14526367 173.56665039 32.14526367 176.56665039 31.14526367 C177.27059651 29.83123092 177.93010697 28.49323797 178.56665039 27.14526367 C181.03749497 23.70373015 183.68934958 21.22754215 186.99243164 18.59838867 C189.42157857 16.3560992 191.19608812 13.68791121 193.11352539 11.00854492 C194.9672337 8.63161249 197.15643055 6.93571269 199.56665039 5.14526367 C199.89665039 4.48526367 200.22665039 3.82526367 200.56665039 3.14526367 C201.22665039 3.14526367 201.88665039 3.14526367 202.56665039 3.14526367 C202.56665039 2.48526367 202.56665039 1.82526367 202.56665039 1.14526367 C210.37028518 0.00026083 217.73657043 0.34752825 225.56665039 1.14526367 C222.36211099 6.42747147 219.28013587 10.6394285 214.43383789 14.47338867 C211.32479899 17.2572143 208.89874538 20.574876 206.36352539 23.87573242 C204.84658315 25.79169642 203.41601819 27.55044369 201.56665039 29.14526367 C200.90665039 29.14526367 200.24665039 29.14526367 199.56665039 29.14526367 C199.18959961 29.99797852 199.18959961 29.99797852 198.80493164 30.86791992 C197.39610585 33.45891499 195.73390301 35.39860064 193.75415039 37.58276367 C193.03485352 38.37682617 192.31555664 39.17088867 191.57446289 39.98901367 C189.29654847 42.43533422 186.93020117 44.7817129 184.56665039 47.14526367 C182.25052781 49.76581444 179.94343707 52.39320259 177.65258789 55.03588867 C175.56665039 57.14526367 175.56665039 57.14526367 172.56665039 58.14526367 C171.85655898 59.45598577 171.19519027 60.79353891 170.56665039 62.14526367 C166.85557069 66.89427067 162.6013698 71.15006104 158.31274414 75.37182617 C155.89482163 77.82761324 153.65049024 80.41654507 151.39868164 83.02416992 C149.38879007 85.35118724 147.35645189 87.65692724 145.31665039 89.95776367 C144.67211914 90.68608398 144.02758789 91.4144043 143.36352539 92.16479492 C141.80890663 93.87825517 140.21996891 95.527665 138.56665039 97.14526367 C139.8179389 102.56751386 142.62119267 106.01071441 146.10571289 110.19213867 C147.56665039 112.14526367 147.56665039 112.14526367 147.56665039 114.14526367 C148.22665039 114.14526367 148.88665039 114.14526367 149.56665039 114.14526367 C153.56665039 119.55702838 153.56665039 119.55702838 153.56665039 122.14526367 C154.22665039 122.14526367 154.88665039 122.14526367 155.56665039 122.14526367 C157.36491484 124.40341215 159.04133049 126.65804107 160.69165039 129.02026367 C161.39354492 129.99672852 161.39354492 129.99672852 162.10961914 130.99291992 C165.56665039 135.88114195 165.56665039 135.88114195 165.56665039 138.14526367 C166.22665039 138.14526367 166.88665039 138.14526367 167.56665039 138.14526367 C168.52964814 139.52556045 169.48252745 140.91398333 170.3840332 142.33520508 C172.54428337 145.64158302 175.0239882 148.71246727 177.44165039 151.83276367 C186.11804098 163.1037419 194.52923203 174.56849132 202.87915039 186.08276367 C208.20024042 193.41479644 213.62544955 200.66566989 219.20239258 207.80517578 C225.34128138 215.68196514 230.9794609 223.87069977 236.56665039 232.14526367 C232.94105898 234.42177651 229.91131064 234.38751065 225.68676758 234.37231445 C225.00343353 234.37260651 224.32009949 234.37289856 223.61605835 234.37319946 C221.36508333 234.37180991 219.11444235 234.35626669 216.86352539 234.34057617 C215.29982687 234.3368447 213.73612601 234.33399836 212.17242432 234.33200073 C208.06243401 234.32437481 203.95258569 234.30473531 199.84265137 234.28259277 C195.64650391 234.26211189 191.45033345 234.25299422 187.25415039 234.24291992 C179.02491866 234.22148839 170.7958022 234.18736507 162.56665039 234.14526367 C161.90665039 232.82526367 161.24665039 231.50526367 160.56665039 230.14526367 C159.90665039 230.14526367 159.24665039 230.14526367 158.56665039 230.14526367 C157.64932082 228.83983313 156.74560651 227.5237577 155.89086914 226.17651367 C151.29574108 219.12793966 146.10971545 212.4562346 140.81665039 205.92260742 C139.56665039 204.14526367 139.56665039 204.14526367 139.56665039 202.14526367 C138.90665039 202.14526367 138.24665039 202.14526367 137.56665039 202.14526367 C136.41574061 200.56740348 135.34972253 198.92767071 134.31665039 197.27026367 C130.6521282 191.61604662 126.67339273 186.31163503 122.50415039 181.02026367 C115.1035519 171.61563839 115.1035519 171.61563839 112.00415039 167.08276367 C108.72502164 162.29084099 105.25386529 157.65219737 101.75415039 153.02026367 C101.17785889 152.24803467 100.60156738 151.47580566 100.0078125 150.68017578 C99.46390869 149.96482666 98.92000488 149.24947754 98.35961914 148.51245117 C97.87001709 147.8638916 97.38041504 147.21533203 96.87597656 146.54711914 C96.44389893 146.08450684 96.01182129 145.62189453 95.56665039 145.14526367 C93.47233522 144.91054691 93.47233522 144.91054691 92.15649414 146.54370117 C91.6112207 147.1959668 91.06594727 147.84823242 90.50415039 148.52026367 C84.6534082 155.39275709 78.68543463 162.10316879 72.25024414 168.43432617 C68.61263614 172.13101365 65.29019039 176.11659937 61.93383789 180.06713867 C56.25434855 186.74553317 56.25434855 186.74553317 53.56665039 189.14526367 C52.90665039 189.14526367 52.24665039 189.14526367 51.56665039 189.14526367 C51.56665039 189.80526367 51.56665039 190.46526367 51.56665039 191.14526367 C50.90665039 191.14526367 50.24665039 191.14526367 49.56665039 191.14526367 C49.18186523 192.02311523 49.18186523 192.02311523 48.78930664 192.91870117 C47.46102877 195.33760975 46.00140238 196.8772524 44.00415039 198.77026367 C41.4264965 201.19048326 41.4264965 201.19048326 39.56665039 204.14526367 C38.90665039 204.14526367 38.24665039 204.14526367 37.56665039 204.14526367 C37.22633789 204.94963867 37.22633789 204.94963867 36.87915039 205.77026367 C35.1109495 208.96986529 33.02994836 211.4356359 30.56665039 214.14526367 C29.90665039 214.14526367 29.24665039 214.14526367 28.56665039 214.14526367 C28.31399414 214.72663086 28.06133789 215.30799805 27.80102539 215.90698242 C26.42286974 218.40597985 24.88081114 219.99361071 22.81665039 221.95776367 C19.61168538 225.04702598 16.81536335 228.20990656 14.18383789 231.79760742 C9.81409029 235.43906375 3.00931368 234.09982868 -2.30834961 233.70776367 C-3.09209961 233.65555664 -3.87584961 233.60334961 -4.68334961 233.54956055 C-6.60044081 233.42097516 -8.51696464 233.28397751 -10.43334961 233.14526367 C-10.10334961 232.15526367 -9.77334961 231.16526367 -9.43334961 230.14526367 C-8.77334961 230.14526367 -8.11334961 230.14526367 -7.43334961 230.14526367 C-7.17553711 229.57291992 -6.91772461 229.00057617 -6.65209961 228.41088867 C-5.31969019 225.93397372 -3.78278843 224.01114707 -1.93334961 221.89526367 C-1.32491211 221.18885742 -0.71647461 220.48245117 -0.08959961 219.75463867 C1.56665039 218.14526367 1.56665039 218.14526367 3.56665039 218.14526367 C3.8309082 217.55229492 4.09516602 216.95932617 4.36743164 216.34838867 C5.61035464 214.06497313 6.87066685 212.67099644 8.75415039 210.89526367 C11.30335888 208.42505958 13.69484532 205.90371844 16.00415039 203.20776367 C18.42282818 200.3995002 20.92564722 197.74555774 23.56665039 195.14526367 C26.77497316 191.98004697 29.77291538 188.70153915 32.71118164 185.28588867 C35.58292857 181.97279958 38.54116786 178.73834319 41.48461914 175.48901367 C43.217904 173.53784873 44.87506211 171.55782542 46.50415039 169.52026367 C47.52508789 168.34463867 47.52508789 168.34463867 48.56665039 167.14526367 C49.22665039 167.14526367 49.88665039 167.14526367 50.56665039 167.14526367 C50.97524292 166.25339355 50.97524292 166.25339355 51.39208984 165.34350586 C52.53694528 163.20085811 53.69309737 161.72519731 55.35961914 159.97338867 C55.90432861 159.39492188 56.44903809 158.81645508 57.01025391 158.22045898 C57.58573975 157.61814453 58.16122559 157.01583008 58.75415039 156.39526367 C59.93487775 155.14624586 61.11457315 153.89625167 62.29321289 152.64526367 C63.14254395 151.74420898 63.14254395 151.74420898 64.0090332 150.82495117 C66.4737337 148.16709233 68.80462362 145.40131756 71.10180664 142.59838867 C72.77187067 140.94168516 74.46460039 140.16800021 76.56665039 139.14526367 C77.73331706 137.22859701 77.73331706 137.22859701 78.56665039 135.14526367 C79.22665039 134.15526367 79.88665039 133.16526367 80.56665039 132.14526367 C81.22665039 132.14526367 81.88665039 132.14526367 82.56665039 132.14526367 C82.89665039 130.49526367 83.22665039 128.84526367 83.56665039 127.14526367 C82.90665039 127.14526367 82.24665039 127.14526367 81.56665039 127.14526367 C80.53902284 125.49548811 79.54641876 123.82390351 78.56665039 122.14526367 C76.87901133 119.86638175 75.09391837 117.66712671 73.31665039 115.45776367 C60.56665039 99.40644329 60.56665039 99.40644329 60.56665039 96.14526367 C59.90665039 96.14526367 59.24665039 96.14526367 58.56665039 96.14526367 C56.84008789 94.28198242 56.84008789 94.28198242 54.94165039 91.83276367 C54.31000977 91.03225586 53.67836914 90.23174805 53.02758789 89.40698242 C51.56665039 87.14526367 51.56665039 87.14526367 51.56665039 84.14526367 C50.57665039 83.81526367 49.58665039 83.48526367 48.56665039 83.14526367 C47.87915039 81.08276367 47.87915039 81.08276367 47.56665039 79.14526367 C46.90665039 79.14526367 46.24665039 79.14526367 45.56665039 79.14526367 C44.31205131 77.42131817 43.13932946 75.63758373 42.00415039 73.83276367 C38.55041345 68.50825255 34.79896726 63.66543863 30.72290039 58.79370117 C28.078817 55.54607701 25.70015326 52.16476083 23.34008789 48.70776367 C20.68088053 44.86538475 17.87062643 41.13577436 15.07055664 37.39526367 C13.56665039 35.14526367 13.56665039 35.14526367 13.56665039 33.14526367 C12.08165039 32.65026367 12.08165039 32.65026367 10.56665039 32.14526367 C9.02368164 30.24682617 9.02368164 30.24682617 7.37915039 27.77026367 C4.80958087 23.97554075 2.20413999 20.22369769 -0.49584961 16.52026367 C-1.15713867 15.61147461 -1.81842773 14.70268555 -2.49975586 13.76635742 C-4.75473821 10.70960356 -7.06275938 7.69647086 -9.40209961 4.70385742 C-10.43334961 3.14526367 -10.43334961 3.14526367 -10.43334961 1.14526367 C-6.92060602 0.06605798 -3.66333903 0.01215818 0 0 Z M23.56665039 18.14526367 C25.64209688 22.38596139 27.85509373 26.19362102 30.62915039 30.02026367 C31.32137695 30.98706055 32.01360352 31.95385742 32.72680664 32.94995117 C33.33395508 33.6744043 33.94110352 34.39885742 34.56665039 35.14526367 C35.22665039 35.14526367 35.88665039 35.14526367 36.56665039 35.14526367 C36.93790039 35.98057617 36.93790039 35.98057617 37.31665039 36.83276367 C38.78440823 39.54811567 40.63269955 41.74247626 42.56665039 44.14526367 C43.34008789 45.44463867 43.34008789 45.44463867 44.12915039 46.77026367 C45.42254839 49.12055573 45.42254839 49.12055573 47.06665039 50.64526367 C49.0167231 52.59533638 50.18129859 54.76245858 51.56665039 57.14526367 C52.83714679 59.18575789 54.16096235 61.19543832 55.56665039 63.14526367 C56.22665039 63.14526367 56.88665039 63.14526367 57.56665039 63.14526367 C57.84250977 63.72018555 58.11836914 64.29510742 58.40258789 64.88745117 C61.95799033 71.7835002 66.80411554 77.83427486 71.73461914 83.78588867 C73.56665039 86.14526367 73.56665039 86.14526367 75.17993164 88.94213867 C75.63754883 89.66916992 76.09516602 90.39620117 76.56665039 91.14526367 C77.22665039 91.14526367 77.88665039 91.14526367 78.56665039 91.14526367 C78.80383789 91.66991211 79.04102539 92.19456055 79.28540039 92.73510742 C80.96752002 95.89933856 83.00712403 98.78297305 85.06665039 101.70776367 C89.51267312 108.06429776 89.51267312 108.06429776 91.56665039 111.14526367 C92.22665039 111.14526367 92.88665039 111.14526367 93.56665039 111.14526367 C93.8323584 111.71510986 94.09806641 112.28495605 94.37182617 112.87207031 C95.63240843 115.27037057 97.07141145 117.33979408 98.68383789 119.51635742 C99.29098633 120.33813477 99.89813477 121.15991211 100.52368164 122.0065918 C101.47307617 123.28179687 101.47307617 123.28179687 102.44165039 124.58276367 C103.37944336 125.85216797 103.37944336 125.85216797 104.33618164 127.1472168 C106.82061979 130.50094568 109.3048825 133.82556355 111.94946289 137.05541992 C113.56665039 139.14526367 113.56665039 139.14526367 114.56665039 142.14526367 C115.70832287 143.25234002 116.85075662 144.35863881 117.99633789 145.46166992 C122.07026498 149.82948727 125.32930214 154.96592223 128.76000977 159.84106445 C133.77284969 166.96383979 138.88918658 173.86086164 144.47290039 180.55541992 C147.14791503 183.86425333 149.55802748 187.31877641 151.96508789 190.82495117 C155.18800622 195.49425236 158.65942528 199.97447819 162.12915039 204.46166992 C162.58185303 205.04779053 163.03455566 205.63391113 163.50097656 206.23779297 C164.4082304 207.41119603 165.31720409 208.58327169 166.22802734 209.75390625 C169.4564477 213.92485828 169.4564477 213.92485828 170.56665039 216.14526367 C177.40584921 217.72354032 184.52798015 217.25532015 191.50415039 217.20776367 C192.7603418 217.20325195 194.0165332 217.19874023 195.31079102 217.1940918 C198.39612702 217.18236048 201.48136356 217.16594467 204.56665039 217.14526367 C203.90665039 216.81526367 203.24665039 216.48526367 202.56665039 216.14526367 C202.56665039 215.48526367 202.56665039 214.82526367 202.56665039 214.14526367 C201.90665039 214.14526367 201.24665039 214.14526367 200.56665039 214.14526367 C200.23665039 212.82526367 199.90665039 211.50526367 199.56665039 210.14526367 C198.90665039 210.14526367 198.24665039 210.14526367 197.56665039 210.14526367 C197.41969727 209.2712793 197.41969727 209.2712793 197.26977539 208.37963867 C196.42682671 205.70093508 195.24424688 204.42343041 193.31665039 202.39526367 C190.22693915 199.0200555 187.85241242 195.59439765 185.60961914 191.61401367 C185.09334961 190.88698242 185.09334961 190.88698242 184.56665039 190.14526367 C183.90665039 190.14526367 183.24665039 190.14526367 182.56665039 190.14526367 C182.13352539 189.00057617 182.13352539 189.00057617 181.69165039 187.83276367 C180.60396026 184.9949706 180.60396026 184.9949706 178.56665039 182.14526367 C177.90665039 182.14526367 177.24665039 182.14526367 176.56665039 182.14526367 C176.46223633 181.57291992 176.35782227 181.00057617 176.25024414 180.41088867 C175.4550554 177.77540599 174.28763548 176.08495059 172.62915039 173.89526367 C171.84217773 172.8356543 171.84217773 172.8356543 171.03930664 171.75463867 C170.55333008 171.22354492 170.06735352 170.69245117 169.56665039 170.14526367 C168.90665039 170.14526367 168.24665039 170.14526367 167.56665039 170.14526367 C167.28821289 169.57291992 167.00977539 169.00057617 166.72290039 168.41088867 C165.58391247 166.17908801 164.36728657 164.03655494 163.06665039 161.89526367 C162.43243164 160.8356543 162.43243164 160.8356543 161.78540039 159.75463867 C161.18211914 158.95799805 161.18211914 158.95799805 160.56665039 158.14526367 C159.90665039 158.14526367 159.24665039 158.14526367 158.56665039 158.14526367 C158.16446289 157.03151367 158.16446289 157.03151367 157.75415039 155.89526367 C156.60085205 153.22446751 155.39151564 151.39125167 153.56665039 149.14526367 C152.95176758 148.3744043 152.33688477 147.60354492 151.70336914 146.80932617 C150.99825195 145.93018555 150.29313477 145.05104492 149.56665039 144.14526367 C147.82657408 141.94532473 146.10102373 139.73446524 144.37915039 137.52026367 C143.75556641 136.73135742 143.75556641 136.73135742 143.11938477 135.92651367 C140.19133085 132.15986512 137.89546989 128.29026945 135.56665039 124.14526367 C134.00944066 121.94710297 132.40870771 120.13274657 130.56665039 118.14526367 C129.90665039 118.14526367 129.24665039 118.14526367 128.56665039 118.14526367 C128.19540039 117.06051758 128.19540039 117.06051758 127.81665039 115.95385742 C126.43539154 112.85034143 124.78330983 110.77671363 122.56665039 108.20776367 C118.637682 103.52057331 115.03697918 98.70506616 111.52099609 93.70361328 C107.72355948 88.3181178 103.77225398 83.05688207 99.76464844 77.82617188 C96.78147489 73.8967801 94.12643857 69.90016517 91.65576172 65.62719727 C91.29635498 65.13815918 90.93694824 64.64912109 90.56665039 64.14526367 C89.90665039 64.14526367 89.24665039 64.14526367 88.56665039 64.14526367 C87.23331706 61.47859701 85.89998372 58.81193034 84.56665039 56.14526367 C83.90665039 56.14526367 83.24665039 56.14526367 82.56665039 56.14526367 C82.32172852 55.61030273 82.07680664 55.0753418 81.82446289 54.52416992 C79.27361708 49.69974415 75.93012544 45.33225438 72.7878418 40.87768555 C71.98791515 39.74288356 71.19061125 38.60622718 70.39624023 37.4675293 C69.31424047 35.91767564 68.22192729 34.37503747 67.12915039 32.83276367 C66.49106445 31.92913086 65.85297852 31.02549805 65.19555664 30.09448242 C64.65801758 29.45124023 64.12047852 28.80799805 63.56665039 28.14526367 C62.90665039 28.14526367 62.24665039 28.14526367 61.56665039 28.14526367 C61.31915039 27.60901367 61.07165039 27.07276367 60.81665039 26.52026367 C60.40415039 25.73651367 59.99165039 24.95276367 59.56665039 24.14526367 C59.03330078 23.11836426 58.49995117 22.09146484 57.95043945 21.03344727 C55.81157224 17.82349981 55.81157224 17.82349981 52.17504883 17.46411133 C50.84166357 17.46505497 49.50802766 17.49860469 48.17602539 17.55932617 C47.47141174 17.56781586 46.7667981 17.57630554 46.04083252 17.58505249 C43.79785958 17.61855059 41.5585294 17.69380319 39.31665039 17.77026367 C37.79326496 17.80036882 36.26982295 17.8277437 34.74633789 17.85229492 C31.01859852 17.91832348 27.29298014 18.02181238 23.56665039 18.14526367 Z " fill="#151515" transform="translate(137.433349609375,131.854736328125)"/>
<path d="M0 0 C0.66 0.99 1.32 1.98 2 3 C1.49210938 3.43570312 0.98421875 3.87140625 0.4609375 4.3203125 C-3.86759882 8.06522595 -8.00306944 11.90314618 -12 16 C-12.66 15.67 -13.32 15.34 -14 15 C-12.5484451 13.32742645 -11.08855591 11.66208242 -9.625 10 C-8.81289062 9.071875 -8.00078125 8.14375 -7.1640625 7.1875 C-6.44992188 6.465625 -5.73578125 5.74375 -5 5 C-4.34 5 -3.68 5 -3 5 C-2.690625 4.360625 -2.38125 3.72125 -2.0625 3.0625 C-1 1 -1 1 0 0 Z " fill="#5C5C5C" transform="translate(144,345)"/>
<path d="M0 0 C0.33 1.32 0.66 2.64 1 4 C0.13375 4.515625 -0.7325 5.03125 -1.625 5.5625 C-5.46201739 8.09310433 -8.16675882 11.42328418 -11 15 C-11.66 14.67 -12.32 14.34 -13 14 C-11.71520959 12.49410612 -10.42195918 10.99542625 -9.125 9.5 C-8.40570313 8.6646875 -7.68640625 7.829375 -6.9453125 6.96875 C-6.30335938 6.3190625 -5.66140625 5.669375 -5 5 C-4.34 5 -3.68 5 -3 5 C-2.690625 4.360625 -2.38125 3.72125 -2.0625 3.0625 C-1 1 -1 1 0 0 Z " fill="#6F6F6F" transform="translate(191,294)"/>
<path d="M0 0 C0.33 1.32 0.66 2.64 1 4 C-3.24740335 7.45101522 -7.61105071 10.73279209 -12 14 C-10.68515589 11.09217167 -9.26624689 8.99358442 -7 6.75 C-6.484375 6.22921875 -5.96875 5.7084375 -5.4375 5.171875 C-4 4 -4 4 -2 4 C-1.34 2.68 -0.68 1.36 0 0 Z " fill="#868686" transform="translate(216,267)"/>
<path d="M0 0 C0.625 1.875 0.625 1.875 1 4 C0.34 4.66 -0.32 5.32 -1 6 C-1.33 5.67 -1.66 5.34 -2 5 C-2.99 6.485 -2.99 6.485 -4 8 C-4.66 8 -5.32 8 -6 8 C-5.1875 6.0625 -5.1875 6.0625 -4 4 C-3.01 3.67 -2.02 3.34 -1 3 C-0.67 2.01 -0.34 1.02 0 0 Z " fill="#666666" transform="translate(315,160)"/>
<path d="M0 0 C0.66 0.99 1.32 1.98 2 3 C-0.97 5.475 -0.97 5.475 -4 8 C-3.50168276 4.31245243 -2.89932357 2.39509338 0 0 Z " fill="#3C3C3C" transform="translate(144,345)"/>
<path d="M0 0 C2.5 2.3125 2.5 2.3125 5 5 C5 5.99 5 6.98 5 8 C2.525 7.01 2.525 7.01 0 6 C0 4 0 2 0 0 Z " fill="#8D8D8D" transform="translate(285,317)"/>
<path d="M0 0 C0.33 0.66 0.66 1.32 1 2 C1.99 2.33 2.98 2.66 4 3 C2.88625 3.474375 1.7725 3.94875 0.625 4.4375 C-1.26710994 5.25306463 -3.15712709 6.07856355 -5 7 C-3.70700306 4.11562221 -2.34058637 2.12780579 0 0 Z " fill="#6C6C6C" transform="translate(290,187)"/>
<path d="M0 0 C0 3 0 3 -1.3125 4.38671875 C-2.875 5.59114583 -4.4375 6.79557292 -6 8 C-5.75 5.625 -5.75 5.625 -5 3 C-3 1.75 -3 1.75 -1 1 C-0.67 0.67 -0.34 0.34 0 0 Z " fill="#949494" transform="translate(344,153)"/>
<path d="M0 0 C4.875 2.75 4.875 2.75 6 5 C5.34 5.66 4.68 6.32 4 7 C0 2.25 0 2.25 0 0 Z " fill="#787878" transform="translate(270,325)"/>
<path d="M0 0 C1.32 1.65 2.64 3.3 4 5 C3.34 5.66 2.68 6.32 2 7 C1.01 6.34 0.02 5.68 -1 5 C-0.67 3.35 -0.34 1.7 0 0 Z " fill="#3E3E3E" transform="translate(214,150)"/>
</svg>
